<svg width="359" height="59" viewBox="0 0 359 59" fill="none" xmlns="http://www.w3.org/2000/svg">
<path fill-rule="evenodd" clip-rule="evenodd" d="M73.8423 2.42191C72.3169 3.75419 69.1829 5.79613 66.8776 6.95919C64.5722 8.12224 62.6867 9.42659 62.6867 9.85845C62.6867 10.9552 63.113 10.8658 66.7874 8.99074C68.5683 8.08233 70.2606 7.57304 70.5471 7.85962C70.8337 8.14619 71.1658 17.1593 71.2855 27.8878L71.5026 47.3956L69.0903 47.8785C65.2707 48.6425 66.0426 50.5559 70.1704 50.5559C72.091 50.5559 74.7851 50.7802 76.1573 51.0548C78.8977 51.6032 79.7103 50.2206 77.0553 49.5261C75.6208 49.1509 75.4588 48.4373 75.4588 42.4863V35.8632L78.7189 39.0187C85.9487 46.0162 91.8909 54.9143 91.2674 57.8104C90.727 60.3193 93.1106 58.6813 95.9835 54.5695C98.5595 50.8824 99.5461 50.1009 102.315 49.5533C107.09 48.6089 108.558 46.555 108.279 41.2043C108.229 40.232 107.438 39.0355 106.522 38.5453C104.276 37.3432 103.617 38.2157 105.337 40.1163C107.783 42.8192 104.904 47.1593 102.356 44.6105C101.438 43.6925 101.446 42.3602 102.406 36.0636C103.032 31.9605 103.96 28.1808 104.469 27.6643C104.977 27.1479 106.626 26.4127 108.133 26.0311C109.64 25.6495 111.029 24.8672 111.221 24.2925C111.455 23.59 111.081 23.3937 110.077 23.693C104.811 25.264 104.008 25.2688 104.464 23.7233C104.709 22.8955 105.147 20.8712 105.44 19.2244C105.951 16.3371 105.889 16.2317 103.686 16.2429C100.102 16.262 99.2524 17.2958 98.712 22.2953C98.2162 26.886 98.1675 26.9603 95.2156 27.6571C93.5696 28.0451 92.2221 28.8378 92.2221 29.4173C92.2221 30.2411 92.8472 30.2986 95.0911 29.6783C96.6684 29.2433 98.071 29.003 98.2075 29.1443C98.344 29.2864 98.075 32.7867 97.6104 36.9241C97.0061 42.3043 97.0133 45.1006 97.6343 46.7474C98.4054 48.7893 98.3064 49.1286 96.7594 49.748C94.8524 50.5128 94.7271 50.401 84.04 38.3729C81.0761 35.0378 78.6518 31.9972 78.6518 31.6165C78.6518 29.628 88.5989 21.8187 91.1325 21.8187C93.9775 21.8187 93.4538 20.7155 88.6635 16.6237C84.0975 12.7226 81.3451 12.333 84.2252 15.9954C85.1113 17.121 85.8361 18.4541 85.8361 18.9562C85.8361 19.4583 83.4589 22.1939 80.5533 25.0349L75.2712 30.2004L75.7869 20.9789C76.0711 15.9076 76.5811 9.98058 76.9212 7.80773C77.2613 5.63568 77.3315 2.99026 77.0777 1.92858L76.6155 0L73.8423 2.42191ZM202.974 2.6997C202.203 3.16428 200.897 4.87255 200.071 6.4954C198.691 9.20947 198.658 9.86164 199.661 14.6344C200.261 17.4882 200.759 21.0356 200.768 22.5172C200.784 25.0876 200.675 25.1889 198.39 24.7323C196.644 24.3835 195.995 24.5551 195.995 25.3677C195.995 25.98 197.073 26.7184 198.39 27.0074L200.785 27.5334V34.6618C200.785 40.8028 200.564 41.9802 199.188 43.1576C196.437 45.5141 197.395 45.6594 203.924 43.8777C210.446 42.0976 212.695 40.9768 209.744 40.9768C207.079 40.9768 205.574 38.0017 205.574 32.7316C205.574 28.7619 205.771 28.1097 206.846 28.5216C210.243 29.8252 211.761 29.8771 212.21 28.7044C212.676 27.4919 212.271 27.266 207.892 26.2993C205.966 25.8738 205.756 25.3773 204.898 19.2403C203.793 11.3264 203.741 6.66623 204.741 5.08488C205.384 4.0695 205.855 4.09505 208.339 5.27966C211.507 6.79075 213.028 9.69321 212.257 12.7601C211.883 14.252 211.359 14.6631 210.215 14.3646C208.414 13.8928 208.634 15.3217 210.549 16.5295C212.415 17.7077 215.794 15.9396 216.416 13.4586C216.696 12.3434 216.69 10.1746 216.402 8.63951C215.993 6.45868 215.224 5.51514 212.885 4.32095C208.988 2.3333 204.736 1.63802 202.974 2.6997ZM0.905779 7.43255C3.26223 8.38407 3.5967 11.3775 3.60707 31.5742L3.61585 48.9139L1.02153 49.6626C-1.07948 50.2693 -0.16069 50.4258 5.85815 50.484C10.6261 50.5303 13.1127 50.2701 12.7958 49.7576C12.5244 49.3186 11.426 48.9594 10.3539 48.9594C8.40698 48.9594 8.40538 48.9522 8.40538 40.236V31.5127L12.8325 30.9595C15.2672 30.6554 17.4624 30.6091 17.7098 30.8573C17.9581 31.1056 17.9038 34.5612 17.5885 38.5373C17.0928 44.8092 16.823 45.7663 15.5522 45.7663C14.7467 45.7663 13.8559 46.1415 13.5725 46.5997C13.2276 47.1577 15.0988 47.3549 19.2489 47.1984C25.2366 46.9717 27.9602 45.6753 24.4032 44.7454C22.837 44.3359 22.774 43.7468 22.774 29.4995V14.6799L25.3683 13.983C27.6385 13.3732 27.134 13.2095 21.3315 12.6755C15.3342 12.1239 12.0223 12.4655 14.8768 13.342C19.268 14.6895 19.0501 14.2425 18.4977 20.7746C18.2143 24.1304 17.8926 26.9507 17.7841 27.0417C17.6747 27.1327 15.5091 27.4584 12.9714 27.7665L8.35669 28.3261L8.581 18.094L8.80451 7.86281L11.1993 7.35193C12.5882 7.05498 10.5774 6.82268 6.40975 6.79714C1.71441 6.7684 -0.19262 6.98872 0.905779 7.43255ZM136.189 8.10708C131.511 9.57427 129.853 11.4414 133.229 11.4414C135.995 11.4414 136.247 13.3117 135.961 31.7969L135.727 46.9637L132.933 47.3676C129.337 47.8881 130.806 48.8771 136.107 49.5054C140.037 49.9708 140.117 49.9372 140.117 47.8546C140.117 45.7807 140.165 45.7608 142.08 47.0156C144.733 48.7534 148.212 47.9033 151.626 44.6831C153.863 42.5725 154.425 41.344 154.904 37.5084C155.882 29.6807 153.646 25.8028 147.532 24.7196C145.518 24.3627 144.434 24.7148 142.476 26.3616L139.986 28.4578L140.477 21.7453C140.748 18.0541 141.163 13.1481 141.399 10.8427C141.636 8.53734 141.534 6.67341 141.173 6.70055C140.812 6.72769 138.57 7.35991 136.189 8.10708ZM262.835 17.2287C261.956 17.8945 261.439 19.6802 261.285 22.5906C261.055 26.9164 261.027 26.9611 258.06 27.6587C256.392 28.0515 255.066 28.8497 255.066 29.462C255.066 30.3105 255.531 30.3832 257.114 29.7813C258.24 29.3534 259.504 29.003 259.922 29.003C260.39 29.003 260.477 32.3812 260.149 37.7878C259.674 45.5955 259.775 46.749 261.056 48.1651C262.768 50.057 264.707 50.1791 267.781 48.5898C271.42 46.7075 272.3 41.5747 269.43 38.9764C267.363 37.1061 266.34 38.0815 268.206 40.1442C269.824 41.9323 269.443 43.6821 267.168 44.8994C264.149 46.5151 263.648 44.3399 265.043 35.6732C265.738 31.3547 266.561 27.6084 266.872 27.349C267.184 27.0896 268.966 26.443 270.832 25.9121C272.697 25.3821 274.224 24.5783 274.224 24.1273C274.224 23.6762 273.595 23.4942 272.827 23.7225C272.059 23.9508 270.393 24.3859 269.125 24.6892C266.822 25.2392 266.82 25.2368 267.371 22.1324C267.675 20.4234 268.108 18.3958 268.334 17.6279C268.657 16.5263 268.259 16.2309 266.448 16.2309C265.186 16.2309 263.559 16.6803 262.835 17.2287ZM57.7479 21.5249C55.6701 22.142 53.3016 23.5326 52.4204 24.6533C50.7201 26.815 49.3662 35.4896 50.2068 38.8383C50.8853 41.5436 54.5916 44.9681 56.8403 44.9681C59.9726 44.9681 64.7949 42.0289 66.6884 38.9636C69.0384 35.1615 68.0877 34.483 64.8316 37.6385C61.3584 41.0056 59.4897 40.8523 55.9271 36.9089C52.6646 33.2976 52.6135 31.7003 55.6046 26.8493C58.3195 22.4437 63.2918 22.4932 61.2818 26.9052C59.5136 30.7863 62.7338 34.4295 65.4934 31.67C67.7971 29.367 67.7868 26.8102 65.4646 24.0283C62.4488 20.4162 61.9874 20.2661 57.7479 21.5249ZM181.427 22.2705C177.35 24.3931 176.446 25.8164 179.553 25.2225C181.796 24.793 182.035 25.3326 183.19 33.3934C184.362 41.5835 184.283 42.1973 181.923 43.2734C178.279 44.9338 180.479 45.1549 186.751 43.7595C192.993 42.3706 194.44 41.2714 190.607 40.8299C188.464 40.5841 188.395 40.4124 187.696 33.6321C187.082 27.6811 187.171 26.3951 188.313 24.6517C189.769 22.4294 192.373 21.944 193.072 23.7648C193.359 24.5136 192.907 24.9989 191.769 25.1618C189.532 25.4811 189.071 27.883 190.866 29.8667C192.173 31.3107 192.358 31.3251 193.73 30.083C195.744 28.2606 195.688 23.3082 193.632 21.4483C191.653 19.657 188.593 20.3196 187.398 22.799C186.535 24.5902 186.524 24.5855 186.47 22.4174C186.405 19.7728 186.234 19.768 181.427 22.2705ZM247.882 21.9424C247.882 23.6315 247.852 23.6355 246.229 22.1659C244.611 20.7019 244.512 20.7035 241.705 22.2418C235.68 25.5434 236.14 29.6065 242.956 33.2705C247.448 35.686 248.774 37.7311 248.108 41.2171C247.565 44.0573 245.098 44.0613 242.138 41.2267C239.202 38.4136 239.166 36.1873 242.055 36.1873C243.604 36.1873 243.966 35.9438 243.344 35.3212C242.868 34.8454 241.639 34.5756 240.614 34.7225C239.144 34.9332 238.518 35.8081 237.662 38.8495C237.065 40.972 236.833 42.9477 237.149 43.2399C237.465 43.532 237.874 43.3492 238.059 42.8344C238.278 42.2245 239.746 42.7386 242.273 44.3095C245.298 46.1894 246.682 46.6045 248.559 46.1918C251.559 45.5333 252.276 44.664 253.451 40.2712C254.939 34.7065 254.206 33.4181 247.876 30.4854C243.925 28.655 242.294 27.4703 242.294 26.4302C242.294 25.6224 242.846 24.7499 243.521 24.4905C244.911 23.9572 247.882 26.3001 247.882 27.9293C247.882 28.52 248.241 29.003 248.68 29.003C249.119 29.003 249.478 28.1497 249.478 27.1071C249.478 26.0646 249.703 24.0889 249.977 22.7167C250.372 20.7419 250.206 20.2222 249.179 20.2222C248.383 20.2222 247.882 20.8863 247.882 21.9424ZM30.2664 23.0344C28.0728 25.2288 28.0105 27.1614 30.0908 28.4722C32.1199 29.7502 34.1994 27.7681 33.0603 25.6407C31.9603 23.5844 33.1856 22.2665 35.5117 23.0049C37.2535 23.5581 38.7391 26.3001 38.7391 28.9631C38.7391 30.1221 37.8674 30.5245 34.4261 30.9547C30.6216 31.4297 29.9966 31.7721 29.1345 33.8548C27.5475 37.6848 27.7367 42.5374 29.524 43.8434C31.3001 45.1421 35.2212 45.3417 35.9452 44.1698C36.7618 42.8487 37.9408 43.2694 37.9408 44.8827C37.9408 46.4616 39.4096 47.3629 41.9848 47.3629C43.8335 47.3629 48.9599 42.9493 48.105 42.0936C47.7681 41.7575 47.0681 41.9076 46.5484 42.4272C46.0295 42.9469 44.9184 43.3716 44.081 43.3716C42.6489 43.3716 42.5906 42.9062 43.1079 35.5886C43.7425 26.6002 43.0728 24.0458 39.6116 22.2561C36.0338 20.4058 32.6093 20.6916 30.2664 23.0344ZM162.089 23.6347C157.175 28.5488 157.529 39.3995 162.709 42.6539C166.098 44.7837 172.835 44.4125 175.447 41.9523C178.347 39.2199 180.474 34.7153 179.38 33.6209C178.679 32.92 178.242 33.3056 177.576 35.2182C176.631 37.9259 172.511 40.9768 169.799 40.9768C168.057 40.9768 164.067 36.481 164.063 34.5157C164.062 33.6273 165.315 33.4485 170.07 33.6568L176.078 33.9202L175.55 30.4638C174.812 25.636 174.041 24.4482 170.456 22.6193C166.216 20.4561 165.137 20.587 162.089 23.6347ZM218.378 23.2771C215.954 25.2999 215.638 26.0399 215.32 30.4335C214.788 37.787 215.585 40.7685 218.589 42.6555C222.146 44.8907 228.705 44.4133 231.6 41.7088C234.307 39.1799 236.147 35.5662 235.537 33.9753C235.166 33.0118 234.72 33.3591 233.682 35.4178C232.001 38.7529 227.83 41.3265 225.182 40.6615C223.252 40.177 219.345 34.9221 220.245 34.0216C220.513 33.755 223.3 33.6201 226.44 33.7223L232.15 33.9075L231.63 30.1166C231.073 26.0534 229.61 23.9141 226.171 22.1364C223.027 20.5104 221.407 20.7474 218.378 23.2771ZM116.04 24.413C113.094 26.7974 112.179 29.3415 112.179 35.1488C112.179 40.517 112.331 41.0399 114.272 42.3115C115.423 43.0658 118.47 43.8354 121.042 44.0214C125.544 44.347 125.827 44.2513 128.625 41.4534C131.394 38.6842 131.515 38.3418 131.17 34.1861C130.597 27.2772 127.236 24.9726 121.819 27.7737C119.331 29.0605 118.502 30.9898 119.4 33.4062C120.032 35.1033 120.587 34.3305 121.121 31.0074C121.458 28.912 124.17 28.4522 125.497 30.2658C127.808 33.4285 125.751 41.7751 122.659 41.7751C120.104 41.7751 118.449 38.9764 117.987 33.8771C117.468 28.1568 118.953 25.0117 122.175 25.0117C123.262 25.0117 124.152 24.6525 124.152 24.2135C124.152 23.0648 117.504 23.2284 116.04 24.413ZM169.644 25.7932C170.109 26.6625 170.263 28.279 169.985 29.3854C169.569 31.0417 169.001 31.3978 166.773 31.3978C164.241 31.3978 164.065 31.2261 164.065 28.7635C164.065 24.4474 167.846 22.435 169.644 25.7932ZM225.371 25.1714C225.898 25.6982 226.329 27.3147 226.329 28.7635C226.329 31.3044 226.216 31.3978 223.136 31.3978C220.511 31.3978 219.943 31.1232 219.943 29.8531C219.943 25.3302 222.943 22.7431 225.371 25.1714ZM147.615 28.6693C147.882 29.3638 148.1 32.0707 148.1 34.6842C148.1 40.0213 146.482 43.3716 143.905 43.3716C141.395 43.3716 140.171 40.9904 140.143 36.0588C140.12 31.9781 140.355 31.3395 142.574 29.4732C145.387 27.1055 146.922 26.8605 147.615 28.6693ZM38.1523 36.786C37.7724 40.4715 36.3363 42.5733 34.1962 42.5733C32.8392 42.5733 32.7657 35.2956 34.1092 33.9522C34.636 33.4253 35.8494 32.9943 36.8049 32.9943C38.4006 32.9943 38.5108 33.304 38.1523 36.786Z" fill="#F8A362"/>
<path d="M285.163 18.7318C285.94 18.0278 287.467 17.097 288.555 16.6628C291.306 15.5652 291.414 15.5771 294.93 17.3708C298.678 19.2834 299.714 20.9893 299.714 25.2464C299.714 29.7741 298.601 32.1761 294.303 36.9233C292.23 39.2127 289.891 42.2061 289.105 43.5751L287.674 46.0649L292.524 44.3199C296.41 42.9214 297.461 42.1718 297.813 40.5482C298.555 37.1157 298.835 36.5265 299.724 36.5265C300.279 36.5265 300.5 38.5725 300.348 42.3139L300.113 48.1012L291.512 49.2388C285.652 50.0147 282.652 50.1168 282.095 49.5605C281.54 49.0049 283.044 46.3938 286.819 41.3672C292.37 33.9745 293.328 31.7338 293.328 26.1381C293.328 22.5563 291.024 19.2507 289.055 20.0067C286.977 20.8041 285.641 24.3619 286.751 26.1404C287.465 27.2828 287.423 27.8136 286.563 28.5272C283.894 30.7424 282.519 21.1242 285.163 18.7318Z" fill="#F8A362"/>
<path d="M322.864 23.2795C322.864 19.1956 322.916 19.1062 326.256 17.4522C330.394 15.4039 330.193 15.4063 334.044 17.3708C337.819 19.2962 338.829 20.9869 338.829 25.3773C338.829 28.5727 336.843 34.1318 335.701 34.1318C335.079 34.1318 326.855 44.7589 326.855 45.5636C326.855 46.3291 335.933 42.8272 336.622 41.7958C336.944 41.3129 337.213 39.8992 337.22 38.6555C337.227 37.2067 337.591 36.5114 338.23 36.7213C339.479 37.1308 339.915 40.604 339.264 44.9465L338.765 48.2721L330.378 49.3074C324.603 50.0194 321.734 50.0849 321.166 49.5165C320.597 48.9482 321.762 46.8592 324.907 42.808C330.556 35.5311 332.403 31.6093 332.425 26.8365C332.456 20.2757 328.208 17.5161 325.895 22.5938C325.179 24.1648 325.172 25.0293 325.866 26.1404C326.571 27.2684 326.547 27.8064 325.762 28.457C324.043 29.8843 322.864 27.7785 322.864 23.2795Z" fill="#F8A362"/>
<path d="M342.264 24.7339C341.738 20.8097 342.997 18.3615 346.276 16.9358C349.394 15.5795 349.392 15.5795 352.148 16.6237C356.713 18.3527 357.987 20.3683 357.987 25.8595C357.987 30.7823 357.906 30.9691 353.796 35.603C351.491 38.2021 348.926 41.5005 348.095 42.9325L346.585 45.5372L348.849 44.9689C354.513 43.5472 356.164 42.3706 356.73 39.354C357.641 34.5014 359.1 36.4132 358.874 42.163C358.763 44.9896 358.428 47.5217 358.13 47.7899C357.55 48.3096 345.216 50.0993 342.221 50.0977C339.901 50.0969 339.827 47.6925 342.085 45.649C342.998 44.8228 345.513 41.5045 347.673 38.2739C351.329 32.8091 351.601 32.0571 351.601 27.432C351.601 19.7281 348.836 17.5281 345.517 22.5922C344.392 24.3101 344.311 24.9989 345.089 26.2458C345.874 27.5023 345.821 27.8695 344.8 28.2614C343.114 28.9088 342.758 28.4131 342.264 24.7339Z" fill="#F8A362"/>
<path d="M302.277 32.9943C302.662 25.9912 304.653 20.8672 307.864 18.6185C310.118 17.0395 311.953 17.0403 315.286 18.6217C318.314 20.0593 319.38 22.2833 320.12 28.71C321.515 40.8307 314.675 49.7281 307.009 45.764C303.055 43.7188 301.865 40.5066 302.277 32.9943Z" fill="#F8A362"/>
<path d="M310.122 43.7831C308.579 43.5664 306.929 42.3075 304.933 38.3162L306.131 38.7154L307.328 37.9171L308.126 38.7154L308.925 37.9171L310.122 37.518L310.92 38.3162L311.719 37.1189H312.916L313.714 37.9171L314.512 37.1189L316.508 36.7197C314.912 40.711 312.898 43.0456 311.414 43.6231C310.98 43.7923 310.552 43.8435 310.122 43.7831Z" fill="#071456" stroke="#071456" stroke-linecap="square"/>
</svg>
