<svg width="179" height="225" viewBox="0 0 179 225" fill="none" xmlns="http://www.w3.org/2000/svg">
<path d="M105.007 191.711C104.164 190.872 86.1362 223.397 80.1362 221.397C74.1362 219.397 14.2637 156.373 14.2637 156.373C10.999 153.128 8.40944 149.276 6.64275 145.037C4.87606 140.798 3.9668 136.254 3.9668 131.666C3.9668 127.077 4.87606 122.534 6.64275 118.295C8.40944 114.055 10.999 110.203 14.2637 106.959L77.5236 44.1072C81.1842 40.4694 86.1494 38.4254 91.3269 38.4259C96.5045 38.4264 101.469 40.4714 105.129 44.11C108.789 47.7485 110.844 52.6824 110.843 57.8261C110.843 62.9697 48.4614 128.229 44.8004 131.867" fill="#F8A362"/>
<path d="M76.5019 43.281C80.2565 39.5497 85.3485 37.4539 90.6577 37.4544C95.9669 37.4549 101.059 39.5519 104.812 43.2839C108.566 47.0159 110.675 52.0773 110.674 57.3547M14.2637 156.373L13.2419 156.256M14.2637 156.373C10.999 153.128 8.40944 149.276 6.64275 145.037C4.87606 140.798 3.9668 136.254 3.9668 131.666C3.9668 127.077 4.87606 122.534 6.64275 118.295C8.40944 114.055 10.999 110.203 14.2637 106.959L77.5236 44.1072C81.1842 40.4694 86.1494 38.4254 91.3269 38.4259C96.5045 38.4264 101.469 40.4714 105.129 44.11C108.789 47.7485 110.844 52.6824 110.843 57.8261C110.843 62.9697 48.4614 128.229 44.8004 131.867L44.2472 131.511L104.41 191.312C107.136 194.024 108.992 197.479 109.745 201.238C110.497 204.998 110.112 208.895 108.638 212.437C107.164 215.98 104.667 219.01 101.462 221.143C98.2565 223.277 94.4868 224.42 90.6285 224.426C88.0647 224.431 107.848 194.605 105.479 193.631C103.11 192.658 106.818 193.514 105.007 191.711C104.164 190.872 86.1362 223.397 80.1362 221.397C74.1362 219.397 14.2637 156.373 14.2637 156.373Z" stroke="black"/>
<path d="M136.97 131.51L137.327 131.156L136.97 130.801L76.8075 70.9998V70.9997C73.147 67.362 71.0908 62.4285 71.0903 57.2848C71.0898 52.141 73.1449 47.2071 76.8046 43.5687C80.4644 39.9301 85.4292 37.8851 90.6067 37.8846C95.7843 37.884 100.749 39.928 104.41 43.5658L167.67 106.446L168.022 106.091L167.67 106.446C170.935 109.691 173.524 113.543 175.291 117.782C177.058 122.021 177.967 126.565 177.967 131.153C177.967 135.741 177.058 140.285 175.291 144.524C173.524 148.763 170.935 152.615 167.67 155.86L104.439 218.74L104.438 218.741C102.629 220.548 100.478 221.982 98.1075 222.957C95.7374 223.933 93.1961 224.432 90.6305 224.426L90.6293 224.925L90.6295 224.426C86.7692 224.424 82.9963 223.285 79.7875 221.153C76.5788 219.021 74.0783 215.991 72.6016 212.448C71.1248 208.904 70.7379 205.006 71.4895 201.244C72.2412 197.482 74.0978 194.026 76.8253 191.312L136.97 131.51Z" fill="#F1EBD8" stroke="black"/>
<path d="M103.396 40.9452L103.668 41.1498L103.958 40.9724L130.385 24.8105C130.428 24.8801 130.476 24.9585 130.528 25.0454C130.778 25.4639 131.126 26.0781 131.509 26.8549C132.277 28.4099 133.184 30.6087 133.747 33.1868C134.872 38.3349 134.625 44.9711 129.167 51.0597C127.81 52.5745 125.474 54.456 122.394 56.5973C119.322 58.7331 115.537 61.1085 111.301 63.6127C102.829 68.621 92.5767 74.1328 82.6678 79.2576C72.76 84.3819 63.201 89.1166 56.1186 92.5704C52.5775 94.2973 49.6558 95.7038 47.6195 96.6785C46.6014 97.1658 45.8046 97.5452 45.2625 97.8028C44.9914 97.9315 44.784 98.0298 44.6444 98.0959L44.4864 98.1706L44.4465 98.1895L44.4444 98.1905C28.5939 104.731 20.6145 103.056 16.6032 99.9779C14.5853 98.4298 13.5143 96.4876 12.9471 94.9241C12.6636 94.1427 12.5074 93.4595 12.4223 92.9741C12.3918 92.8005 12.3705 92.6526 12.3558 92.5349L42.8505 76.7626L43.2435 76.5593L43.0896 76.1445C39.1643 65.5684 34.818 59.4716 31.4251 56.0104C29.7289 54.28 28.2732 53.2105 27.2313 52.5705C26.7105 52.2506 26.2936 52.0382 26.0024 51.9044C25.9661 51.8877 25.9317 51.8722 25.8992 51.8579L28.1255 22.6422L28.2089 21.5479L27.3284 22.2031L16.4504 30.2981L16.3164 30.3978L16.2693 30.558L9.88769 52.2416L9.83467 52.4217L9.91334 52.5922L14.833 63.2545L4.76624 54.4159L1 8.16037L30.2518 1L73.4511 8.12498L74.4291 18.9132L74.4491 19.134L74.6262 19.2674L103.396 40.9452Z" fill="#C75B70" stroke="black"/>
<path d="M102.88 40.5601C82.728 56.6942 67.7284 65.2626 57.7618 69.7979C52.7373 72.0844 48.9921 73.3457 46.5107 74.0346C45.27 74.3791 44.3452 74.5805 43.7344 74.6954C43.4937 74.7407 43.3017 74.7725 43.1583 74.7944L36.9634 63.88C53.725 56.7983 67.8006 49.157 77.7154 43.2649C82.7241 40.2883 86.6719 37.7577 89.3685 35.9704C90.7168 35.0768 91.7524 34.3689 92.4515 33.8841C92.7828 33.6543 93.0385 33.4746 93.2162 33.349L102.88 40.5601Z" fill="#D17A34" stroke="black"/>
<path d="M74.6261 19.2674L102.875 40.5522L95.1012 46.5996L67.1818 17.035L66.7866 16.6166L66.4275 17.0663L61.1859 23.6316L65.0208 10.4766L65.1813 9.92609L64.6141 9.84206L28.2154 4.44736L28.1526 4.43806L28.0895 4.44474L7.93262 6.57777L30.253 1.0002L73.4511 8.12498L74.4291 18.9132L74.4491 19.134L74.6261 19.2674Z" fill="#74183F" stroke="black"/>
<path d="M86.7214 37.7072C88.8252 36.3467 90.4757 35.2382 91.6228 34.4538C92.2415 34.0306 92.7138 33.7017 93.0318 33.4783C93.1003 33.4302 93.1616 33.387 93.2157 33.3488L102.879 40.5596C100.195 42.7037 97.6034 44.7186 95.1061 46.6043L86.7214 37.7072Z" fill="#A35D2E" stroke="black"/>
<path d="M129.168 51.0942V51.0943C126.679 53.8668 120.969 57.8189 113.554 62.2945C108.135 65.5652 101.84 69.0957 95.2971 72.6231C110.652 61.4333 117.84 52.8614 121.015 46.1141C124.175 39.4007 123.339 34.5208 122.709 30.8498C122.637 30.4283 122.568 30.0227 122.507 29.6322L130.385 24.8218C130.428 24.8919 130.476 24.9708 130.529 25.0583C130.78 25.4775 131.128 26.0929 131.512 26.871C132.281 28.4287 133.19 30.6309 133.754 33.2124C134.881 38.3671 134.633 45.0087 129.168 51.0942Z" fill="#74183F" stroke="black"/>
<path d="M81.3981 41.3882L81.3983 41.3887L88.1595 54.3119C88.1596 54.3121 88.1597 54.3123 88.1598 54.3125C88.927 55.795 89.0723 57.5188 88.5643 59.1074C88.0562 60.6962 86.9356 62.0213 85.4464 62.7921L65.8109 72.9408C64.3153 73.7097 62.5734 73.8576 60.968 73.3516C59.3627 72.8457 58.0258 71.7278 57.2499 70.2442C57.2498 70.2441 57.2498 70.244 57.2498 70.244L50.5058 57.3317C50.5057 57.3315 50.5056 57.3314 50.5056 57.3313C49.7346 55.8467 49.5872 54.1193 50.0954 52.5271C50.6036 50.9347 51.7266 49.6066 53.2191 48.8347L72.8375 38.6916C74.3328 37.9212 76.075 37.7726 77.6808 38.2786C79.2865 38.7847 80.6233 39.9036 81.3981 41.3882ZM55.4998 53.2072L55.4914 53.2117C55.1776 53.3815 54.9408 53.6656 54.8314 54.0055C54.722 54.3455 54.7486 54.7144 54.9056 55.0351L54.9055 55.0352L54.9118 55.0473L61.6798 67.9724L61.6827 67.9779C61.8529 68.2934 62.1394 68.53 62.4809 68.6386C62.8222 68.7472 63.1927 68.7197 63.5142 68.5617L63.5143 68.5618L63.5234 68.557L83.1425 58.4078L83.1426 58.4079L83.1508 58.4034C83.4646 58.2336 83.7013 57.9495 83.8108 57.6096C83.9202 57.2696 83.8936 56.9007 83.7366 56.58L83.7367 56.5799L83.7305 56.5679L76.9683 43.6486L76.9684 43.6485L76.9638 43.6402C76.7923 43.3271 76.5065 43.0926 76.1665 42.9844C75.8266 42.8763 75.4578 42.9025 75.1367 43.0579L75.1366 43.0577L75.1248 43.0638L55.4998 53.2072Z" fill="#F1EBD8" stroke="black"/>
<path d="M29.5276 47.1684H29.5275L29.5277 47.1792C29.5635 48.8509 30.239 50.4454 31.4152 51.6384C31.5205 51.7616 31.6637 51.9116 31.7994 52.0538C31.87 52.1277 31.9385 52.1995 31.9987 52.2643L32.58 52.9231L32.5857 52.9294C32.9815 53.3627 33.365 53.8123 33.7309 54.2781C34.0856 54.7402 34.4064 55.227 34.6908 55.7347L34.6924 55.7375C34.8333 55.9853 34.954 56.241 35.0838 56.5166C35.1297 56.6158 35.1712 56.7169 35.2083 56.8196C35.2061 56.8449 35.2006 56.8699 35.1918 56.894C35.1882 56.9037 35.1842 56.9132 35.1796 56.9224C35.1221 56.9171 35.0839 56.9089 35.0595 56.9017C35.0403 56.8961 35.0307 56.8912 35.0272 56.8894C35.0241 56.8877 35.0232 56.8869 35.0229 56.8866C35.0204 56.8843 35.0111 56.8759 34.9789 56.827C34.9755 56.8219 34.9715 56.8156 34.9668 56.8084C34.9396 56.7661 34.8909 56.6905 34.8315 56.6198L34.3305 55.9615H34.3306L34.3267 55.9566L34.3239 55.953C33.9804 55.5131 33.6303 55.0649 33.2674 54.6332C32.9053 54.2024 32.5229 53.7688 32.1207 53.3511L32.1208 53.351L32.1131 53.3433C32.0502 53.2809 31.9855 53.2159 31.9201 53.1502C31.7864 53.016 31.65 52.8792 31.5219 52.7558C31.3885 52.6273 31.2307 52.492 31.0713 52.3553C31.0015 52.2954 30.9314 52.2353 30.8629 52.1754C30.0356 51.2769 29.4596 50.1789 29.1922 48.9907L29.192 48.9899C29.0585 48.4013 29.0034 47.7978 29.0283 47.1949L29.0288 47.1846V47.1743C29.0288 46.9938 29.0307 46.9025 29.0474 46.8229L29.058 46.7722V46.7203V46.3007L29.1153 45.4528L29.3842 41.9668L29.3844 41.9635L29.5276 40.2562V41.9541V45.4459V46.3188V46.7494V46.7503V46.7512V46.7521V46.753V46.7539V46.7547V46.7556V46.7565V46.7574V46.7583V46.7592V46.7601V46.7609V46.7618V46.7627V46.7636V46.7645V46.7654V46.7663V46.7671V46.768V46.7689V46.7698V46.7707V46.7716V46.7724V46.7733V46.7742V46.7751V46.776V46.7768V46.7777V46.7786V46.7795V46.7804V46.7813V46.7821V46.783V46.7839V46.7848V46.7857V46.7865V46.7874V46.7883V46.7892V46.7901V46.7909V46.7918V46.7927V46.7936V46.7945V46.7953V46.7962V46.7971V46.798V46.7988V46.7997V46.8006V46.8015V46.8024V46.8032V46.8041V46.805V46.8059V46.8067V46.8076V46.8085V46.8094V46.8102V46.8111V46.812V46.8129V46.8137V46.8146V46.8155V46.8164V46.8172V46.8181V46.819V46.8199V46.8207V46.8216V46.8225V46.8234V46.8242V46.8251V46.826V46.8268V46.8277V46.8286V46.8295V46.8303V46.8312V46.8321V46.8329V46.8338V46.8347V46.8356V46.8364V46.8373V46.8382V46.839V46.8399V46.8408V46.8416V46.8425V46.8434V46.8442V46.8451V46.846V46.8468V46.8477V46.8486V46.8494V46.8503V46.8512V46.852V46.8529V46.8538V46.8546V46.8555V46.8564V46.8572V46.8581V46.859V46.8598V46.8607V46.8615V46.8624V46.8633V46.8641V46.865V46.8659V46.8667V46.8676V46.8684V46.8693V46.8702V46.871V46.8719V46.8727V46.8736V46.8745V46.8753V46.8762V46.877V46.8779V46.8788V46.8796V46.8805V46.8813V46.8822V46.8831V46.8839V46.8848V46.8856V46.8865V46.8873V46.8882V46.889V46.8899V46.8908V46.8916V46.8925V46.8933V46.8942V46.895V46.8959V46.8967V46.8976V46.8984V46.8993V46.9001V46.901V46.9018V46.9027V46.9035V46.9044V46.9052V46.9061V46.9069V46.9078V46.9086V46.9095V46.9103V46.9112V46.912V46.9129V46.9137V46.9146V46.9154V46.9163V46.9171V46.918V46.9188V46.9197V46.9205V46.9214V46.9222V46.923V46.9239V46.9247V46.9256V46.9264V46.9273V46.9281V46.9289V46.9298V46.9306V46.9315V46.9323V46.9332V46.934V46.9348V46.9357V46.9365V46.9374V46.9382V46.939V46.9399V46.9407V46.9415V46.9424V46.9432V46.9441V46.9449V46.9457V46.9466V46.9474V46.9482V46.9491V46.9499V46.9507V46.9516V46.9524V46.9532V46.9541V46.9549V46.9557V46.9566V46.9574V46.9582V46.9591V46.9599V46.9607V46.9616V46.9624V46.9632V46.964V46.9649V46.9657V46.9665V46.9674V46.9682V46.969V46.9698V46.9707V46.9715V46.9723V46.9732V46.974V46.9748V46.9756V46.9765V46.9773V46.9781V46.9789V46.9797V46.9806V46.9814V46.9822V46.983V46.9839V46.9847V46.9855V46.9863V46.9871V46.988V46.9888V46.9896V46.9904V46.9912V46.992V46.9929V46.9937V46.9945V46.9953V46.9961V46.9969V46.9978V46.9986V46.9994V47.0002V47.001V47.0018V47.0026V47.0035V47.0043V47.0051V47.0059V47.0067V47.0075V47.0083V47.0091V47.0099V47.0108V47.0116V47.0124V47.0132V47.014V47.0148V47.0156V47.0164V47.0172V47.018V47.0188V47.0196V47.0204V47.0212V47.0221V47.0229V47.0237V47.0245V47.0253V47.0261V47.0269V47.0277V47.0285V47.0293V47.0301V47.0309V47.0317V47.0325V47.0333V47.0341V47.0349V47.0357V47.0365V47.0373V47.0381V47.0389V47.0396V47.0404V47.0412V47.042V47.0428V47.0436V47.0444V47.0452V47.046V47.0468V47.0476V47.0484V47.0492V47.05V47.0507V47.0515V47.0523V47.0531V47.0539V47.0547V47.0555V47.0563V47.057V47.0578V47.0586V47.0594V47.0602V47.061V47.0618V47.0625V47.0633V47.0641V47.0649V47.0657V47.0665V47.0672V47.068V47.0688V47.0696V47.0704V47.0711V47.0719V47.0727V47.0735V47.0742V47.075V47.0758V47.0766V47.0773V47.0781V47.0789V47.0797V47.0804V47.0812V47.082V47.0828V47.0835V47.0843V47.0851V47.0858V47.0866V47.0874V47.0882V47.0889V47.0897V47.0905V47.0912V47.092V47.0928V47.0935V47.0943V47.0951V47.0958V47.0966V47.0974V47.0981V47.0989V47.0996V47.1004V47.1012V47.1019V47.1027V47.1034V47.1042V47.105V47.1057V47.1065V47.1072V47.108V47.1088V47.1095V47.1103V47.111V47.1118V47.1125V47.1133V47.114V47.1148V47.1155V47.1163V47.1171V47.1178V47.1186V47.1193V47.1201V47.1208V47.1216V47.1223V47.123V47.1238V47.1245V47.1253V47.126V47.1268V47.1275V47.1283V47.129V47.1298V47.1305V47.1312V47.132V47.1327V47.1335V47.1342V47.1349V47.1357V47.1364V47.1372V47.1379V47.1386V47.1394V47.1401V47.1408V47.1416V47.1423V47.1431V47.1438V47.1445V47.1453V47.146V47.1467V47.1475V47.1482V47.1489V47.1496V47.1504V47.1511V47.1518V47.1526V47.1533V47.154V47.1547V47.1555V47.1562V47.1569V47.1576V47.1584V47.1591V47.1598V47.1605V47.1613V47.162V47.1627V47.1634V47.1641V47.1649V47.1656V47.1663V47.167V47.1677V47.1684Z" fill="#D58D9A" stroke="black"/>
<path d="M36.9043 59.017C36.9043 59.1365 36.806 59.2386 36.6783 59.2386C36.5507 59.2386 36.4524 59.1365 36.4524 59.017C36.4524 58.8974 36.5507 58.7954 36.6783 58.7954C36.806 58.7954 36.9043 58.8974 36.9043 59.017Z" fill="#D58D9A" stroke="black"/>
</svg>
