<svg width="243" height="150" viewBox="0 0 243 150" fill="none" xmlns="http://www.w3.org/2000/svg">
<path d="M52.7658 114C50.3888 113.999 48.0655 113.29 46.0893 111.962C44.1131 110.635 42.5727 108.749 41.6628 106.542C40.753 104.335 40.5144 101.907 40.9772 99.5643C41.4401 97.2214 42.5836 95.069 44.2633 93.3789L80.3938 57.0655L44.2633 20.7551C42.0652 18.4778 40.8466 15.4231 40.8707 12.2506C40.8948 9.07815 42.1596 6.04249 44.392 3.79915C46.6244 1.55581 49.6453 0.284807 52.8023 0.260606C55.9593 0.236405 58.9991 1.46094 61.2653 3.66979L99.2575 41.848C101.247 43.8462 102.824 46.2185 103.901 48.8296C104.977 51.4406 105.532 54.2392 105.532 57.0655C105.532 59.8918 104.977 62.6904 103.901 65.3014C102.824 67.9125 101.247 70.2848 99.2575 72.283L61.2653 110.461C60.1507 111.585 58.826 112.476 57.3673 113.083C55.9086 113.691 54.3447 114.002 52.7658 114Z" fill="url(#paint0_linear_1117_543)"/>
<path opacity="0.4" d="M52.7657 113.999C51.1863 114.002 49.622 113.691 48.1628 113.084C46.7035 112.476 45.3782 111.585 44.2632 110.461L6.27402 72.2829C4.28496 70.2847 2.7071 67.9124 1.63059 65.3013C0.554081 62.6903 0 59.8917 0 57.0654C0 54.2391 0.554081 51.4405 1.63059 48.8295C2.7071 46.2184 4.28496 43.8461 6.27402 41.8479L44.2632 3.66974C45.3733 2.51965 46.6999 1.60292 48.1659 0.972879C49.6319 0.342841 51.2079 0.0120855 52.8022 -0.000136701C54.3966 -0.0123589 55.9774 0.294197 57.4528 0.901687C58.9282 1.50918 60.2686 2.40547 61.396 3.53841C62.5234 4.67135 63.4153 6.01829 64.0198 7.50087C64.6244 8.98345 64.9294 10.5721 64.9173 12.1742C64.9051 13.7764 64.576 15.3601 63.949 16.8333C63.322 18.3064 62.4098 19.6395 61.2653 20.755L25.1348 57.0654L61.2653 93.3758C62.9448 95.0657 64.0882 97.2179 64.5512 99.5605C65.0141 101.903 64.7758 104.331 63.8663 106.538C62.9568 108.744 61.4169 110.63 59.4411 111.958C57.4654 113.286 55.1425 113.995 52.7657 113.997V113.999Z" fill="url(#paint1_linear_1117_543)"/>
<path d="M128.637 4.93658C131.901 4.92773 135.094 5.89173 137.813 7.70667C140.532 9.52162 142.654 12.106 143.911 15.1329C145.168 18.1599 145.504 21.4935 144.875 24.7121C144.247 27.9307 142.683 30.8898 140.381 33.2152C138.079 35.5405 135.142 37.1277 131.943 37.7759C128.743 38.4241 125.424 38.1043 122.405 36.8569C119.387 35.6095 116.804 33.4906 114.984 30.768C113.163 28.0455 112.187 24.8416 112.179 21.5617C112.178 17.1672 113.909 12.9511 116.993 9.83562C120.077 6.72012 124.264 4.95871 128.637 4.93658V4.93658ZM128.637 13.6033C127.079 13.6027 125.555 14.0665 124.259 14.9362C122.963 15.8059 121.953 17.0422 121.356 18.4889C120.76 19.9356 120.603 21.5276 120.907 23.0635C121.211 24.5995 121.961 26.0103 123.063 27.1177C124.165 28.225 125.569 28.979 127.098 29.2844C128.626 29.5898 130.21 29.4327 131.65 28.8332C133.09 28.2336 134.32 27.2185 135.185 25.9162C136.051 24.6138 136.513 23.0828 136.512 21.5168C136.514 20.4769 136.312 19.4468 135.917 18.4856C135.522 17.5245 134.942 16.6511 134.211 15.9158C133.479 15.1805 132.61 14.5977 131.653 14.2008C130.697 13.804 129.672 13.6009 128.637 13.6033Z" fill="#071456"/>
<path d="M153.365 4.93701H167.272C170.49 4.94333 173.575 6.23093 175.851 8.5179C178.127 10.8049 179.408 13.9048 179.414 17.1391C179.414 23.8184 174.002 29.2993 167.447 29.2993H162.034V38.1005H153.365V4.93701ZM162.034 21.7832H167.388C168.019 21.7991 168.647 21.6879 169.234 21.4562C169.822 21.2245 170.358 20.8769 170.81 20.434C171.262 19.991 171.621 19.4617 171.866 18.8771C172.111 18.2925 172.238 17.6644 172.238 17.03C172.238 16.3956 172.111 15.7676 171.866 15.183C171.621 14.5984 171.262 14.069 170.81 13.626C170.358 13.1831 169.822 12.8355 169.234 12.6038C168.647 12.3721 168.019 12.2609 167.388 12.2768H162.034V21.7832Z" fill="#071456"/>
<path d="M186.278 4.93701H206.798V12.1423H194.962V17.5366H205.436V24.8793H194.947V30.9819H206.783V38.1005H186.263L186.278 4.93701Z" fill="#071456"/>
<path d="M239.431 38.1002L223.857 22.3986V38.0972H215.188V4.9248H218.709L234.331 20.5756V4.93676H243V38.1092L239.431 38.1002Z" fill="#071456"/>
<path d="M116.807 42.8804H129.645C134.238 42.8804 138.643 44.7138 141.891 47.9773C145.138 51.2408 146.963 55.6671 146.963 60.2824C146.963 64.8978 145.138 69.3241 141.891 72.5876C138.643 75.8511 134.238 77.6845 129.645 77.6845H116.807V42.8804ZM125.86 68.5815H129.693C130.783 68.6024 131.866 68.4047 132.878 68.0001C133.891 67.5955 134.813 66.992 135.591 66.225C136.369 65.458 136.987 64.5428 137.409 63.533C137.831 62.5231 138.048 61.4389 138.048 60.3437C138.048 59.2485 137.831 58.1643 137.409 57.1545C136.987 56.1446 136.369 55.2294 135.591 54.4624C134.813 53.6954 133.891 53.0919 132.878 52.6873C131.866 52.2827 130.783 52.085 129.693 52.1059H125.86V68.5815Z" fill="#071456"/>
<path d="M161.008 42.7207H182.528V50.2846H170.106V55.9628H181.109V63.6403H170.106V70.0446H182.528V77.5159H161.008V42.7207Z" fill="#071456"/>
<path d="M230.102 43.2168L213.986 78.0688H209.823L193.665 43.2168H202.81L211.907 63.0426L221.052 43.2258L230.102 43.2168Z" fill="#071456"/>
<path opacity="0.7" d="M212.452 104.397H238.703V109.179H212.452V104.397Z" fill="#071456"/>
<g opacity="0.7">
<path opacity="0.7" d="M130.165 98.8214C130.139 99.7047 129.772 100.543 129.141 101.159C128.51 101.774 127.665 102.119 126.785 102.119C125.906 102.119 125.061 101.774 124.43 101.159C123.799 100.543 123.432 99.7047 123.406 98.8214V83.1885H116.565V98.923C116.565 100.27 116.83 101.604 117.343 102.849C117.856 104.094 118.608 105.225 119.556 106.178C120.504 107.13 121.629 107.886 122.868 108.402C124.107 108.917 125.434 109.183 126.775 109.183C128.116 109.183 129.443 108.917 130.682 108.402C131.921 107.886 133.046 107.13 133.994 106.178C134.942 105.225 135.694 104.094 136.207 102.849C136.721 101.604 136.985 100.27 136.985 98.923V83.1885H130.145L130.165 98.8214Z" fill="#071456"/>
<path opacity="0.7" d="M139.495 109.182H146.287V98.8209H154.599V93.0321H146.287V88.8034H155.706V83.188H139.495V109.182Z" fill="#071456"/>
<path opacity="0.7" d="M171.137 102.285C167.619 102.285 165.068 99.7206 165.068 96.1851C165.068 92.6497 167.619 90.0856 171.137 90.0856C171.939 90.0645 172.737 90.2037 173.484 90.4951C174.231 90.7865 174.914 91.2243 175.491 91.7831L180.25 86.9656C179.056 85.7622 177.636 84.8087 176.073 84.1603C174.51 83.5119 172.834 83.1814 171.143 83.1881C169.013 83.1853 166.914 83.7114 165.034 84.7197C163.154 85.7281 161.552 87.1874 160.368 88.968C159.185 90.7487 158.457 92.7955 158.251 94.9267C158.044 97.0578 158.364 99.2073 159.183 101.184C160.002 103.161 161.294 104.904 162.945 106.258C164.595 107.612 166.553 108.536 168.644 108.947C170.736 109.357 172.895 109.243 174.932 108.613C176.968 107.983 178.819 106.857 180.318 105.336L175.491 100.554C174.921 101.125 174.241 101.573 173.492 101.871C172.743 102.168 171.942 102.309 171.137 102.285Z" fill="#071456"/>
<path opacity="0.7" d="M195.714 95.2139V99.8013H200.716C200.101 100.654 199.278 101.334 198.326 101.777C197.375 102.22 196.326 102.41 195.281 102.329C194.236 102.249 193.228 101.901 192.355 101.318C191.481 100.735 190.771 99.9366 190.292 98.9994C189.813 98.0622 189.581 97.0173 189.618 95.9643C189.655 94.9114 189.96 93.8855 190.504 92.9846C191.047 92.0838 191.812 91.338 192.724 90.8184C193.636 90.2989 194.665 90.0229 195.714 90.0169C197.321 90.0099 198.867 90.6315 200.026 91.7502L204.82 86.9686C202.697 84.8544 199.911 83.5446 196.936 83.2622C193.96 82.9797 190.979 83.742 188.5 85.4194C186.021 87.0967 184.197 89.5854 183.338 92.4621C182.479 95.3388 182.638 98.4257 183.789 101.198C184.94 103.969 187.01 106.255 189.649 107.665C192.288 109.076 195.331 109.524 198.262 108.933C201.192 108.343 203.828 106.75 205.722 104.426C207.615 102.103 208.649 99.1915 208.648 96.1881V95.2169L195.714 95.2139Z" fill="#071456"/>
</g>
<path d="M60.3643 141.925L61.3828 141.918C61.3281 142.602 61.0911 143.138 60.6719 143.525C60.2572 143.908 59.7035 144.088 59.0107 144.065C58.5186 144.051 58.1152 143.919 57.8008 143.668C57.4909 143.418 57.2676 143.094 57.1309 142.698C56.9987 142.297 56.9486 141.871 56.9805 141.419L57.0625 140.62C57.1126 140.141 57.2448 139.699 57.459 139.293C57.6732 138.888 57.9648 138.564 58.334 138.323C58.7031 138.077 59.1475 137.958 59.667 137.967C60.3278 137.981 60.8382 138.181 61.1982 138.569C61.5583 138.952 61.7292 139.471 61.7109 140.127L60.6924 140.114C60.7152 139.74 60.6514 139.442 60.501 139.218C60.3551 138.99 60.0794 138.874 59.6738 138.87C59.3457 138.861 59.07 138.943 58.8467 139.116C58.6279 139.284 58.457 139.503 58.334 139.772C58.2109 140.041 58.1289 140.321 58.0879 140.613L57.9922 141.426C57.9694 141.677 57.9762 141.934 58.0127 142.199C58.0537 142.458 58.1494 142.682 58.2998 142.869C58.4502 143.051 58.6803 143.149 58.9902 143.163C59.4095 143.181 59.7262 143.076 59.9404 142.848C60.1592 142.62 60.3005 142.313 60.3643 141.925ZM55.5244 141.064C55.4561 141.588 55.4743 142.098 55.5791 142.595C55.6885 143.092 55.8776 143.543 56.1465 143.949C56.4199 144.35 56.7686 144.673 57.1924 144.919C57.6162 145.161 58.113 145.286 58.6826 145.295C59.2796 145.309 59.8402 145.2 60.3643 144.967C60.8929 144.735 61.3646 144.414 61.7793 144.003C62.1986 143.593 62.5404 143.126 62.8047 142.602C63.0736 142.078 63.2467 141.533 63.3242 140.968C63.3971 140.449 63.3789 139.941 63.2695 139.444C63.1647 138.947 62.9756 138.498 62.7021 138.097C62.4333 137.692 62.0869 137.368 61.6631 137.126C61.2393 136.885 60.7425 136.76 60.1729 136.75C59.5758 136.737 59.013 136.846 58.4844 137.079C57.9557 137.306 57.484 137.625 57.0693 138.036C56.6546 138.446 56.3128 138.913 56.0439 139.437C55.7751 139.957 55.6019 140.499 55.5244 141.064ZM54.7178 141.064C54.7907 140.385 54.9775 139.736 55.2783 139.116C55.5837 138.491 55.9779 137.938 56.4609 137.455C56.9486 136.967 57.5023 136.584 58.1221 136.306C58.7419 136.028 59.4072 135.896 60.1182 135.91C60.7972 135.919 61.401 136.067 61.9297 136.354C62.4583 136.641 62.8981 137.024 63.249 137.502C63.6045 137.981 63.8574 138.521 64.0078 139.123C64.1628 139.72 64.2061 140.337 64.1377 140.975C64.0648 141.65 63.8779 142.299 63.5771 142.923C63.2764 143.543 62.8822 144.097 62.3945 144.584C61.9115 145.072 61.3577 145.457 60.7334 145.74C60.1136 146.018 59.4505 146.15 58.7441 146.136C58.0605 146.127 57.4544 145.979 56.9258 145.692C56.3971 145.405 55.9574 145.022 55.6064 144.543C55.2555 144.06 55.0026 143.518 54.8477 142.917C54.6973 142.315 54.654 141.697 54.7178 141.064ZM77.0986 140.756L77.0439 141.235C76.9528 141.873 76.7819 142.488 76.5312 143.081C76.2806 143.673 75.9525 144.202 75.5469 144.667C75.1413 145.127 74.6582 145.491 74.0977 145.76C73.5417 146.025 72.9105 146.15 72.2041 146.136C71.5296 146.123 70.9577 145.977 70.4883 145.699C70.0234 145.416 69.6543 145.042 69.3809 144.578C69.112 144.113 68.932 143.596 68.8408 143.026C68.7497 142.452 68.7406 141.864 68.8135 141.262L68.8682 140.791C68.9593 140.153 69.1302 139.54 69.3809 138.952C69.6361 138.364 69.9665 137.84 70.3721 137.379C70.7822 136.915 71.2653 136.55 71.8213 136.286C72.3818 136.021 73.0107 135.896 73.708 135.91C74.3825 135.919 74.9521 136.065 75.417 136.347C75.8864 136.625 76.2555 136.997 76.5244 137.461C76.7979 137.922 76.9801 138.439 77.0713 139.013C77.1624 139.583 77.1715 140.164 77.0986 140.756ZM75.0137 141.262L75.082 140.77C75.1185 140.46 75.1367 140.125 75.1367 139.765C75.1413 139.401 75.1003 139.052 75.0137 138.719C74.9271 138.382 74.7721 138.106 74.5488 137.892C74.3301 137.673 74.0133 137.555 73.5986 137.537C73.152 137.523 72.7692 137.612 72.4502 137.803C72.1357 137.995 71.8714 138.254 71.6572 138.583C71.4476 138.906 71.2812 139.262 71.1582 139.649C71.0397 140.032 70.9531 140.408 70.8984 140.777L70.8369 141.269C70.7959 141.574 70.7731 141.912 70.7686 142.281C70.7686 142.645 70.8118 142.996 70.8984 143.333C70.985 143.666 71.14 143.942 71.3633 144.161C71.5866 144.379 71.9056 144.498 72.3203 144.516C72.7624 144.53 73.1406 144.439 73.4551 144.243C73.7741 144.047 74.0407 143.787 74.2549 143.463C74.4691 143.135 74.6377 142.78 74.7607 142.397C74.8838 142.01 74.9681 141.631 75.0137 141.262ZM80.4551 140.134L78.9443 148.843H77.0166L78.7939 138.603H80.5713L80.4551 140.134ZM84.625 142.178L84.6045 142.322C84.5498 142.768 84.445 143.22 84.29 143.675C84.1396 144.131 83.9323 144.548 83.668 144.926C83.4036 145.3 83.0778 145.601 82.6904 145.829C82.3031 146.052 81.8473 146.157 81.3232 146.143C80.863 146.129 80.4801 146.009 80.1748 145.781C79.8695 145.553 79.6302 145.261 79.457 144.906C79.2839 144.546 79.1631 144.158 79.0947 143.744C79.0264 143.329 78.999 142.932 79.0127 142.554L79.0605 142.171C79.1289 141.757 79.2474 141.331 79.416 140.893C79.5846 140.451 79.8034 140.045 80.0723 139.676C80.3411 139.303 80.6624 139.004 81.0361 138.781C81.4098 138.553 81.8405 138.446 82.3281 138.459C82.834 138.473 83.2464 138.594 83.5654 138.822C83.889 139.05 84.1351 139.346 84.3037 139.71C84.4723 140.075 84.5771 140.474 84.6182 140.907C84.6637 141.335 84.666 141.759 84.625 142.178ZM82.6836 142.315L82.7041 142.171C82.7223 141.971 82.7314 141.75 82.7314 141.508C82.7314 141.262 82.7041 141.028 82.6494 140.804C82.5947 140.581 82.4945 140.394 82.3486 140.244C82.2028 140.093 81.9932 140.014 81.7197 140.004C81.4417 139.991 81.1979 140.034 80.9883 140.134C80.7786 140.235 80.6009 140.376 80.4551 140.558C80.3138 140.736 80.1976 140.939 80.1064 141.167C80.0153 141.394 79.9492 141.629 79.9082 141.871L79.7715 142.828C79.7487 143.106 79.7669 143.381 79.8262 143.655C79.8854 143.924 80.0016 144.147 80.1748 144.325C80.3525 144.502 80.6077 144.596 80.9404 144.605C81.2412 144.61 81.4964 144.541 81.7061 144.4C81.9157 144.259 82.0866 144.072 82.2188 143.839C82.3555 143.602 82.4603 143.349 82.5332 143.081C82.6061 142.812 82.6562 142.556 82.6836 142.315ZM88.6309 146.136C88.125 146.127 87.6693 146.031 87.2637 145.849C86.8581 145.662 86.5186 145.407 86.2451 145.083C85.9762 144.76 85.778 144.384 85.6504 143.956C85.5228 143.527 85.4772 143.067 85.5137 142.575L85.541 142.294C85.5957 141.779 85.721 141.29 85.917 140.825C86.113 140.36 86.375 139.95 86.7031 139.594C87.0312 139.234 87.4186 138.954 87.8652 138.753C88.3164 138.548 88.8177 138.453 89.3691 138.466C89.8841 138.475 90.3239 138.58 90.6885 138.781C91.0531 138.981 91.347 139.25 91.5703 139.587C91.7936 139.925 91.9463 140.31 92.0283 140.743C92.1104 141.171 92.1263 141.62 92.0762 142.089L91.9668 142.91H86.252L86.4639 141.597L90.2373 141.604L90.2715 141.433C90.3079 141.182 90.2965 140.95 90.2373 140.736C90.1781 140.517 90.0664 140.342 89.9023 140.209C89.7383 140.077 89.5195 140.007 89.2461 139.998C88.9316 139.988 88.6673 140.055 88.4531 140.196C88.2389 140.337 88.0635 140.524 87.9268 140.756C87.79 140.989 87.6852 141.242 87.6123 141.515C87.5394 141.784 87.487 142.044 87.4551 142.294L87.4277 142.568C87.4049 142.809 87.4118 143.051 87.4482 143.292C87.4847 143.529 87.5553 143.744 87.6602 143.935C87.7695 144.126 87.9176 144.281 88.1045 144.4C88.2959 144.518 88.5352 144.582 88.8223 144.591C89.1868 144.6 89.5218 144.53 89.8271 144.379C90.137 144.224 90.415 144.019 90.6611 143.764L91.5225 144.803C91.3174 145.113 91.0553 145.368 90.7363 145.569C90.4219 145.765 90.0824 145.908 89.7178 146C89.3532 146.095 88.9909 146.141 88.6309 146.136ZM95.3711 140.292L94.3799 146H92.4521L93.7373 138.603H95.542L95.3711 140.292ZM94.8037 142.042L94.3252 142.055C94.3753 141.613 94.4756 141.176 94.626 140.743C94.7764 140.31 94.9814 139.92 95.2412 139.574C95.5055 139.223 95.8268 138.947 96.2051 138.747C96.5879 138.546 97.0322 138.45 97.5381 138.459C97.9482 138.473 98.2855 138.56 98.5498 138.719C98.8187 138.874 99.0238 139.084 99.165 139.348C99.3109 139.612 99.4043 139.911 99.4453 140.244C99.4909 140.576 99.4954 140.923 99.459 141.283L98.666 146H96.7314L97.5312 141.262C97.5586 141.021 97.5518 140.806 97.5107 140.62C97.4697 140.433 97.3786 140.285 97.2373 140.175C97.1006 140.066 96.9001 140.009 96.6357 140.004C96.3441 139.995 96.0911 140.05 95.877 140.168C95.6673 140.287 95.4896 140.446 95.3438 140.647C95.1979 140.847 95.0817 141.069 94.9951 141.31C94.9085 141.552 94.8447 141.795 94.8037 142.042ZM103.314 146H101.1L101.387 144.4L103.376 144.414C103.996 144.414 104.518 144.268 104.941 143.976C105.365 143.68 105.698 143.292 105.939 142.814C106.186 142.331 106.352 141.809 106.438 141.249L106.5 140.763C106.541 140.417 106.555 140.066 106.541 139.71C106.527 139.35 106.461 139.018 106.343 138.712C106.229 138.407 106.047 138.159 105.796 137.967C105.545 137.776 105.206 137.673 104.777 137.66L102.508 137.653L102.788 136.046L104.839 136.053C105.504 136.067 106.083 136.204 106.575 136.463C107.067 136.719 107.471 137.065 107.785 137.502C108.1 137.94 108.318 138.441 108.441 139.006C108.564 139.567 108.59 140.157 108.517 140.777L108.462 141.262C108.371 141.928 108.182 142.55 107.895 143.128C107.612 143.707 107.245 144.213 106.794 144.646C106.347 145.074 105.83 145.409 105.242 145.651C104.654 145.888 104.012 146.004 103.314 146ZM103.964 136.046L102.234 146H100.231L101.954 136.046H103.964ZM112.42 146.136C111.914 146.127 111.458 146.031 111.053 145.849C110.647 145.662 110.308 145.407 110.034 145.083C109.765 144.76 109.567 144.384 109.439 143.956C109.312 143.527 109.266 143.067 109.303 142.575L109.33 142.294C109.385 141.779 109.51 141.29 109.706 140.825C109.902 140.36 110.164 139.95 110.492 139.594C110.82 139.234 111.208 138.954 111.654 138.753C112.105 138.548 112.607 138.453 113.158 138.466C113.673 138.475 114.113 138.58 114.478 138.781C114.842 138.981 115.136 139.25 115.359 139.587C115.583 139.925 115.735 140.31 115.817 140.743C115.899 141.171 115.915 141.62 115.865 142.089L115.756 142.91H110.041L110.253 141.597L114.026 141.604L114.061 141.433C114.097 141.182 114.086 140.95 114.026 140.736C113.967 140.517 113.855 140.342 113.691 140.209C113.527 140.077 113.309 140.007 113.035 139.998C112.721 139.988 112.456 140.055 112.242 140.196C112.028 140.337 111.853 140.524 111.716 140.756C111.579 140.989 111.474 141.242 111.401 141.515C111.328 141.784 111.276 142.044 111.244 142.294L111.217 142.568C111.194 142.809 111.201 143.051 111.237 143.292C111.274 143.529 111.344 143.744 111.449 143.935C111.559 144.126 111.707 144.281 111.894 144.4C112.085 144.518 112.324 144.582 112.611 144.591C112.976 144.6 113.311 144.53 113.616 144.379C113.926 144.224 114.204 144.019 114.45 143.764L115.312 144.803C115.106 145.113 114.844 145.368 114.525 145.569C114.211 145.765 113.871 145.908 113.507 146C113.142 146.095 112.78 146.141 112.42 146.136ZM118.935 144.482L121.43 138.603H123.494L119.912 146H118.661L118.935 144.482ZM118.75 138.603L119.427 144.667L119.249 146H118.06L116.788 138.603H118.75ZM130.248 136.046H132.244L131.123 142.616C131.018 143.354 130.774 143.99 130.392 144.523C130.013 145.052 129.526 145.457 128.929 145.74C128.336 146.018 127.669 146.152 126.926 146.143C126.233 146.129 125.629 145.979 125.114 145.692C124.604 145.4 124.221 144.995 123.966 144.475C123.711 143.951 123.626 143.333 123.713 142.623L124.834 136.046H126.83L125.716 142.629C125.675 142.971 125.686 143.286 125.75 143.573C125.818 143.855 125.955 144.085 126.16 144.263C126.37 144.436 126.666 144.528 127.049 144.537C127.454 144.55 127.801 144.477 128.088 144.318C128.375 144.158 128.605 143.933 128.778 143.641C128.951 143.345 129.068 143.005 129.127 142.623L130.248 136.046ZM135.874 136.046L134.145 146H132.142L133.864 136.046H135.874ZM138.984 140.298L138.704 141.898H134.302L134.582 140.298H138.984ZM140.181 136.046L139.907 137.653H135.04L135.32 136.046H140.181ZM145.725 142.705L147.68 142.677C147.593 143.411 147.345 144.04 146.935 144.564C146.529 145.083 146.019 145.48 145.403 145.753C144.788 146.022 144.12 146.15 143.4 146.136C142.735 146.123 142.174 145.981 141.719 145.712C141.263 145.439 140.905 145.074 140.646 144.619C140.386 144.163 140.215 143.655 140.133 143.094C140.051 142.534 140.046 141.959 140.119 141.372L140.215 140.681C140.306 140.061 140.472 139.462 140.714 138.883C140.96 138.305 141.281 137.79 141.678 137.338C142.074 136.887 142.544 136.532 143.086 136.272C143.628 136.012 144.243 135.889 144.932 135.903C145.652 135.917 146.26 136.071 146.757 136.368C147.258 136.659 147.643 137.067 147.912 137.591C148.186 138.111 148.338 138.719 148.37 139.417L146.381 139.41C146.385 139.041 146.34 138.717 146.244 138.439C146.153 138.156 145.993 137.938 145.766 137.783C145.538 137.623 145.223 137.537 144.822 137.523C144.385 137.509 144.013 137.596 143.708 137.783C143.403 137.97 143.15 138.22 142.949 138.535C142.753 138.849 142.598 139.193 142.484 139.567C142.375 139.941 142.293 140.307 142.238 140.667L142.143 141.378C142.106 141.675 142.081 142.003 142.067 142.363C142.054 142.718 142.083 143.058 142.156 143.381C142.229 143.705 142.37 143.974 142.58 144.188C142.79 144.398 143.102 144.509 143.517 144.523C143.927 144.537 144.28 144.473 144.576 144.332C144.877 144.19 145.121 143.981 145.308 143.703C145.499 143.425 145.638 143.092 145.725 142.705ZM157.045 140.797L156.423 144.749C156.127 145.109 155.757 145.391 155.315 145.596C154.878 145.797 154.415 145.938 153.928 146.02C153.44 146.102 152.975 146.139 152.533 146.129C151.854 146.12 151.275 145.984 150.797 145.719C150.323 145.45 149.945 145.09 149.662 144.639C149.384 144.188 149.197 143.68 149.102 143.115C149.006 142.545 148.997 141.953 149.074 141.337L149.163 140.715C149.25 140.077 149.416 139.469 149.662 138.89C149.908 138.307 150.229 137.79 150.626 137.338C151.022 136.883 151.496 136.527 152.048 136.272C152.599 136.012 153.226 135.889 153.928 135.903C154.63 135.917 155.227 136.053 155.719 136.313C156.211 136.573 156.594 136.946 156.867 137.434C157.145 137.917 157.307 138.505 157.353 139.198L155.425 139.191C155.402 138.863 155.336 138.573 155.227 138.323C155.117 138.072 154.953 137.876 154.734 137.735C154.516 137.594 154.229 137.516 153.873 137.502C153.436 137.484 153.06 137.571 152.745 137.762C152.431 137.954 152.166 138.211 151.952 138.535C151.743 138.854 151.576 139.205 151.453 139.587C151.33 139.966 151.243 140.337 151.193 140.702L151.104 141.344C151.063 141.677 151.043 142.028 151.043 142.397C151.048 142.762 151.1 143.106 151.2 143.429C151.305 143.748 151.478 144.01 151.72 144.215C151.961 144.416 152.299 144.521 152.731 144.53C152.941 144.534 153.146 144.521 153.347 144.489C153.547 144.457 153.741 144.404 153.928 144.332C154.115 144.254 154.29 144.154 154.454 144.031L154.796 142.26H152.978L153.23 140.797H157.045ZM164.469 144.461L164.223 146H157.612L157.824 144.612L161.413 141.228C161.623 141.023 161.846 140.795 162.083 140.544C162.325 140.294 162.536 140.027 162.719 139.745C162.906 139.458 163.022 139.157 163.067 138.842C163.099 138.601 163.088 138.375 163.033 138.166C162.979 137.951 162.874 137.776 162.719 137.639C162.564 137.502 162.35 137.432 162.076 137.427C161.748 137.418 161.47 137.498 161.242 137.667C161.014 137.831 160.834 138.047 160.702 138.316C160.575 138.58 160.49 138.858 160.449 139.15L158.542 139.164C158.583 138.516 158.774 137.947 159.116 137.455C159.463 136.958 159.905 136.573 160.442 136.299C160.985 136.021 161.575 135.889 162.213 135.903C162.778 135.912 163.284 136.024 163.73 136.238C164.177 136.447 164.521 136.757 164.763 137.167C165.004 137.573 165.1 138.074 165.05 138.671C165.013 139.082 164.906 139.464 164.729 139.82C164.555 140.175 164.337 140.51 164.072 140.825C163.812 141.139 163.535 141.438 163.238 141.72C162.942 141.998 162.655 142.267 162.377 142.527L160.374 144.448L164.469 144.461ZM172.829 140.148L172.569 141.864C172.487 142.411 172.355 142.942 172.173 143.457C171.995 143.967 171.754 144.427 171.448 144.837C171.143 145.248 170.765 145.571 170.313 145.808C169.862 146.041 169.322 146.15 168.693 146.136C168.215 146.127 167.807 146.038 167.47 145.87C167.137 145.701 166.864 145.478 166.649 145.2C166.44 144.917 166.28 144.596 166.171 144.236C166.066 143.871 166.005 143.488 165.986 143.087C165.973 142.682 165.991 142.276 166.041 141.871L166.294 140.148C166.376 139.606 166.508 139.079 166.69 138.569C166.873 138.058 167.117 137.6 167.422 137.195C167.727 136.785 168.105 136.466 168.557 136.238C169.012 136.005 169.552 135.896 170.177 135.91C170.655 135.919 171.061 136.008 171.394 136.176C171.731 136.34 172.004 136.561 172.214 136.839C172.428 137.117 172.588 137.436 172.692 137.796C172.802 138.156 172.863 138.537 172.877 138.938C172.895 139.339 172.879 139.742 172.829 140.148ZM170.614 142.13L170.949 139.868C170.967 139.704 170.986 139.519 171.004 139.314C171.027 139.104 171.031 138.892 171.018 138.678C171.008 138.464 170.972 138.266 170.908 138.083C170.849 137.897 170.751 137.746 170.614 137.632C170.478 137.514 170.291 137.448 170.054 137.434C169.726 137.42 169.452 137.491 169.233 137.646C169.019 137.796 168.846 137.999 168.714 138.254C168.586 138.51 168.488 138.781 168.42 139.068C168.352 139.355 168.297 139.626 168.256 139.881L167.928 142.137C167.91 142.301 167.889 142.488 167.866 142.698C167.848 142.907 167.843 143.122 167.853 143.34C167.866 143.559 167.903 143.762 167.962 143.949C168.021 144.136 168.119 144.288 168.256 144.407C168.393 144.525 168.579 144.591 168.816 144.605C169.145 144.623 169.418 144.555 169.637 144.4C169.855 144.24 170.029 144.033 170.156 143.778C170.288 143.518 170.389 143.242 170.457 142.951C170.525 142.654 170.578 142.381 170.614 142.13ZM180.055 144.461L179.809 146H173.198L173.41 144.612L176.999 141.228C177.209 141.023 177.432 140.795 177.669 140.544C177.91 140.294 178.122 140.027 178.305 139.745C178.492 139.458 178.608 139.157 178.653 138.842C178.685 138.601 178.674 138.375 178.619 138.166C178.564 137.951 178.46 137.776 178.305 137.639C178.15 137.502 177.936 137.432 177.662 137.427C177.334 137.418 177.056 137.498 176.828 137.667C176.6 137.831 176.42 138.047 176.288 138.316C176.16 138.58 176.076 138.858 176.035 139.15L174.128 139.164C174.169 138.516 174.36 137.947 174.702 137.455C175.049 136.958 175.491 136.573 176.028 136.299C176.571 136.021 177.161 135.889 177.799 135.903C178.364 135.912 178.87 136.024 179.316 136.238C179.763 136.447 180.107 136.757 180.349 137.167C180.59 137.573 180.686 138.074 180.636 138.671C180.599 139.082 180.492 139.464 180.314 139.82C180.141 140.175 179.923 140.51 179.658 140.825C179.398 141.139 179.12 141.438 178.824 141.72C178.528 141.998 178.241 142.267 177.963 142.527L175.96 144.448L180.055 144.461ZM187.848 144.461L187.602 146H180.991L181.203 144.612L184.792 141.228C185.002 141.023 185.225 140.795 185.462 140.544C185.703 140.294 185.915 140.027 186.098 139.745C186.285 139.458 186.401 139.157 186.446 138.842C186.478 138.601 186.467 138.375 186.412 138.166C186.357 137.951 186.253 137.776 186.098 137.639C185.943 137.502 185.729 137.432 185.455 137.427C185.127 137.418 184.849 137.498 184.621 137.667C184.393 137.831 184.213 138.047 184.081 138.316C183.953 138.58 183.869 138.858 183.828 139.15L181.921 139.164C181.962 138.516 182.153 137.947 182.495 137.455C182.841 136.958 183.284 136.573 183.821 136.299C184.364 136.021 184.954 135.889 185.592 135.903C186.157 135.912 186.663 136.024 187.109 136.238C187.556 136.447 187.9 136.757 188.142 137.167C188.383 137.573 188.479 138.074 188.429 138.671C188.392 139.082 188.285 139.464 188.107 139.82C187.934 140.175 187.715 140.51 187.451 140.825C187.191 141.139 186.913 141.438 186.617 141.72C186.321 141.998 186.034 142.267 185.756 142.527L183.753 144.448L187.848 144.461Z" fill="#071456"/>
<defs>
<linearGradient id="paint0_linear_1117_543" x1="21.9468" y1="88.0354" x2="83.8829" y2="26.3981" gradientUnits="userSpaceOnUse">
<stop stop-color="#071456"/>
<stop offset="1" stop-color="#071456"/>
</linearGradient>
<linearGradient id="paint1_linear_1117_543" x1="21.9467" y1="88.0353" x2="83.8828" y2="26.398" gradientUnits="userSpaceOnUse">
<stop stop-color="#071456"/>
<stop offset="1" stop-color="white"/>
</linearGradient>
</defs>
</svg>
